<?xml version="1.0" encoding="UTF-8" standalone="no"?>
<!DOCTYPE svg PUBLIC "-//W3C//DTD SVG 1.0//EN"
"http://www.w3.org/TR/2001/REC-SVG-20010904/DTD/svg10.dtd">
<!-- Created with Sodipodi ("http://www.sodipodi.com/") -->
<svg
   id="svg602"
   sodipodi:version="0.34"
   xmlns="http://www.w3.org/2000/svg"
   xmlns:sodipodi="http://sodipodi.sourceforge.net/DTD/sodipodi-0.dtd"
   xmlns:xlink="http://www.w3.org/1999/xlink"
   width="500pt"
   height="500pt"
   xml:space="preserve"
   sodipodi:docbase="/home/silfreed"
   sodipodi:docname="/home/silfreed/delete.svg"><defs
   id="defs604" /><sodipodi:namedview
   id="base"
   showgrid="true" /><path
   style="fill:#ff0000;fill-rule:nonzero;stroke:none;fill-opacity:1;stroke-opacity:1;stroke-width:1pt;stroke-linejoin:miter;stroke-linecap:butt;"
   id="path614"
   d="M 70.55693 6.426582 C 86.90462 10.17567 123.9271 34.40388 137.7715 43.20515 C 169.5265 64.99393 210.6196 106.22 239.4121 131.7016 C 281.123 176.2202 322.9793 225.0698 360.524 273.0442 C 412.0518 338.2916 460.0128 409.8522 509.8052 476.3981 C 540.1332 516.9458 547.485 521.0207 572.5676 559.2356 C 586.0794 572.5412 610.0545 606.0762 611.8047 609.8918 L 494.7378 616.2792 C 484.1263 605.8722 487.7766 609.6887 476.4463 594.525 C 449.814 552.0543 447.1049 546.919 417.6288 506.3331 C 371.0592 438.0944 343.0928 394.9928 291.3059 330.0254 C 253.3439 283.0292 224.0218 233.1327 181.2918 190.2826 C 155.4117 161.8702 134.9299 139.7582 96.06599 115.1453 C 65.05711 101.3583 23.23106 84.54342 27.53759 84.72641 L 70.55693 6.426582 z "
   sodipodi:nodetypes="ccccccccccccccc" /><path
   style="fill:#ff0000;fill-rule:nonzero;stroke:none;fill-opacity:1;stroke-opacity:1;stroke-width:1pt;stroke-linejoin:miter;stroke-linecap:butt;"
   id="path617"
   d="M 583.6904 116.1999 C 568.2498 123.4886 488.429 162.0879 468.2277 177.241 C 384.6972 235.3339 362.0019 264.3537 288.3258 337.0916 C 221.0339 417.1875 203.7359 444.8217 148.0307 533.1641 C 135.5907 555.2454 121.2279 579.8684 110.0631 602.6011 L 6.230891 602.493 C 18.43789 579.9698 40.08923 543.1124 54.69821 521.0911 C 112.2467 433.4171 176.0313 348.9243 244.0674 268.9023 C 317.3891 195.4517 402.0674 119.8783 489.2757 63.01125 C 513.5588 49.15092 556.4431 15.89958 584.1775 9.37355 L 583.6904 116.1999 z "
   sodipodi:nodetypes="ccccccccccc" /></svg>
