<?xml version="1.0" encoding="UTF-8" standalone="no"?>
<!DOCTYPE svg PUBLIC "-//W3C//DTD SVG 20010904//EN"
"http://www.w3.org/TR/2001/REC-SVG-20010904/DTD/svg10.dtd">
<!-- Created with Sodipodi ("http://www.sodipodi.com/") -->
<svg
   id="svg1"
   sodipodi:version="0.31.1"
   width="500pt"
   height="500pt"
   sodipodi:docbase="/home/silfreed/cvs/netmrg/images/default/"
   sodipodi:docname="/home/silfreed/cvs/netmrg/images/default/netmrg-logo.svg"
   xmlns="http://www.w3.org/2000/svg"
   xmlns:sodipodi="http://sodipodi.sourceforge.net/DTD/sodipodi-0.dtd"
   xmlns:xlink="http://www.w3.org/1999/xlink">
  <defs
     id="defs200" />
  <sodipodi:namedview
     id="base"
     showgrid="true"
     gridcolor="#3f3fff"
     gridopacity="0.184314"
     gridtolerance="10.5833mm"
     gridspacingy="10.5833mm"
     gridspacingx="10.5833mm"
     showborder="true" />
  <rect
     style="font-size:12;fill:#ffffff;fill-rule:evenodd;stroke-width:1pt;fill-opacity:1;"
     id="rect145"
     width="494.053924"
     height="494.050935"
     x="143.070291"
     y="-39.330282"
     transform="matrix(0.956467,0.291842,-0.291846,0.956465,0,0)" />
  <path
     style="fill:#ff9e00;fill-rule:evenodd;stroke:#ff9e00;stroke-opacity:1;stroke-width:2.5;stroke-linejoin:miter;stroke-linecap:butt;stroke-dasharray:none;stroke-dashoffset:0;fill-opacity:1;"
     d="M 53.75 325 C 53.75 325 75 287.5 75 287.5 C 75 287.5 111.25 280 111.25 280 C 111.25 280 150 205 150 205 C 150 205 187.5 257.5 187.5 257.5 C 187.5 257.5 225 231.25 225 231.25 C 225 231.25 262.5 185 262.5 185 C 262.5 185 300 225 300 225 C 300 225 337.5 243.75 337.5 243.75 C 337.5 243.75 375 162.5 375 162.5 C 375 162.5 412.5 173.75 412.5 173.75 C 412.5 173.75 450 138.75 450 138.75 C 450 138.75 487.5 218.75 487.5 218.75 C 487.5 218.75 525 197.5 525 197.5 C 525 197.5 563.75 238.75 562.5 237.5 C 561.25 236.25 600 192.5 600 192.5 C 600 192.5 605 196.25 605 196.25 C 605 196.25 565 325 566.25 325 C 567.5 325 55 328.75 53.75 325 z "
     id="path232" />
  <path
     style="fill:#00a6f3;fill-rule:evenodd;stroke:#00a6f3;stroke-opacity:1;stroke-width:2.5;stroke-linejoin:miter;stroke-linecap:butt;stroke-dasharray:none;stroke-dashoffset:0;fill-opacity:1;"
     d="M 37.5 372.5 C 40 372.5 73.75 396.25 73.75 396.25 C 73.75 396.25 112.5 350 112.5 350 C 112.5 350 150 385 150 385 C 150 385 187.5 438.75 187.5 438.75 C 187.5 438.75 225 380 225 380 C 225 380 262.5 365 262.5 365 C 262.5 365 300 430 300 430 C 300 430 337.5 417.5 337.5 417.5 C 337.5 417.5 375 487.5 375 487.5 C 375 487.5 413.75 497.5 412.5 496.25 C 411.25 495 450 423.75 450 423.75 C 450 423.75 487.5 452.5 487.5 451.25 C 487.5 450 525 381.25 525 381.25 C 525 381.25 547.5 391.25 547.5 391.25 C 547.5 391.25 565 326.25 565 326.25 C 565 326.25 52.5 325 52.5 325 C 52.5 325 37.5 375 37.5 372.5 z "
     id="path235" />
  <path
     style="fill:none;fill-rule:evenodd;stroke:#000000;stroke-opacity:1;stroke-width:6.25;stroke-linejoin:miter;stroke-linecap:butt;stroke-dasharray:none;stroke-dashoffset:0;fill-opacity:1;"
     d="M 52.5 325 L 566.25 325 "
     id="path202" />
  <path
     style="font-size:12;fill:#000000;fill-rule:evenodd;stroke-width:1pt;fill-opacity:1;shapeRendering:crispEdges;"
     d="M 146.119 -0.000108752 L -0.000516275 478.88 L 478.881 625 L 625 146.12 L 146.119 -0.000108752 z M 154.438 15.6252 L 15.6251 470.562 L 470.562 609.375 L 609.375 154.439 L 154.438 15.6252 z "
     id="path206" />
</svg>
