<?xml version="1.0" encoding="UTF-8" standalone="no"?>
<!DOCTYPE svg PUBLIC "-//W3C//DTD SVG 20010904//EN"
"http://www.w3.org/TR/2001/REC-SVG-20010904/DTD/svg10.dtd">
<!-- Created with Sodipodi ("http://www.sodipodi.com/") -->
<svg
   id="svg548"
   sodipodi:version="0.32"
   width="500pt"
   height="400pt"
   sodipodi:docbase="/home/silfreed/cvs/netmrg/share/images/default/"
   sodipodi:docname="/home/silfreed/cvs/netmrg/share/images/default/slideshow.svg"
   xmlns="http://www.w3.org/2000/svg"
   xmlns:sodipodi="http://sodipodi.sourceforge.net/DTD/sodipodi-0.dtd"
   xmlns:xlink="http://www.w3.org/1999/xlink">
  <defs
     id="defs550" />
  <sodipodi:namedview
     id="base"
     showgrid="true"
     gridspacingy="10pt"
     gridspacingx="10pt" />
  <path
     style="font-size:12;fill:#404040;fill-rule:evenodd;stroke-width:1pt;"
     d="M 37.5 25 C 30.575 25 25 30.0175 25 36.25 L 25 326.25 C 25 332.482 30.575 337.5 37.5 337.5 L 450 337.5 C 456.925 337.5 462.5 332.482 462.5 326.25 L 462.5 36.25 C 462.5 30.0175 456.925 25 450 25 L 37.5 25 z M 87.5 50 C 66.725 50 50 66.1675 50 86.25 L 50 276.25 C 50 296.332 66.725 312.5 87.5 312.5 L 400 312.5 C 420.775 312.5 437.5 296.332 437.5 276.25 L 437.5 86.25 C 437.5 66.1675 420.775 50 400 50 L 87.5 50 z "
     id="path555"
     transform="matrix(1.142857,0.000000,0.000000,1.200000,-28.57142,-30.00000)" />
  <path
     style="font-size:12;fill:#7f7f7f;fill-rule:evenodd;stroke-width:1pt;fill-opacity:1;"
     d="M 37.5 25 C 30.575 25 25 30.0175 25 36.25 L 25 326.25 C 25 332.482 30.575 337.5 37.5 337.5 L 450 337.5 C 456.925 337.5 462.5 332.482 462.5 326.25 L 462.5 36.25 C 462.5 30.0175 456.925 25 450 25 L 37.5 25 z M 87.5 50 C 66.725 50 50 66.1675 50 86.25 L 50 276.25 C 50 296.332 66.725 312.5 87.5 312.5 L 400 312.5 C 420.775 312.5 437.5 296.332 437.5 276.25 L 437.5 86.25 C 437.5 66.1675 420.775 50 400 50 L 87.5 50 z "
     id="path556"
     transform="matrix(1.142857,0.000000,0.000000,1.200000,96.42868,95.00000)" />
</svg>
