<?xml version="1.0" encoding="UTF-8" standalone="no"?>
<!DOCTYPE svg PUBLIC "-//W3C//DTD SVG 20010904//EN"
"http://www.w3.org/TR/2001/REC-SVG-20010904/DTD/svg10.dtd">
<!-- Created with Sodipodi ("http://www.sodipodi.com/") -->
<svg
   id="svg121"
   sodipodi:version="0.31.1"
   width="250pt"
   height="250pt"
   sodipodi:docbase="/home/silfreed/cvs/netmrg/images/default/"
   sodipodi:docname="/home/silfreed/cvs/netmrg/images/default/status-unknown-trig.svg"
   xmlns="http://www.w3.org/2000/svg"
   xmlns:sodipodi="http://sodipodi.sourceforge.net/DTD/sodipodi-0.dtd"
   xmlns:xlink="http://www.w3.org/1999/xlink">
  <defs
     id="defs123">
    <linearGradient
       id="linearGradient130">
      <stop
         style="stop-color:#ffffff;stop-opacity:0;"
         offset="0.000000"
         id="stop131" />
      <stop
         style="stop-color:#0000bf;stop-opacity:1;"
         offset="1.000000"
         id="stop132" />
    </linearGradient>
    <linearGradient
       xlink:href="#linearGradient130"
       id="linearGradient133"
       x1="-1.01198e-08"
       y1="-1.01198e-08"
       x2="1"
       y2="-1.01198e-08"
       gradientUnits="objectBoundingBox"
       spreadMethod="repeat" />
    <radialGradient
       xlink:href="#linearGradient130"
       id="radialGradient134"
       cx="0.5"
       cy="0.5"
       fx="0.5"
       fy="0.5"
       r="0.250488"
       gradientUnits="objectBoundingBox"
       spreadMethod="repeat" />
  </defs>
  <sodipodi:namedview
     id="base"
     showgrid="true"
     gridspacingy="5pt"
     gridspacingx="5pt" />
  <rect
     style="font-size:12;fill:#4c4cc0;fill-rule:evenodd;stroke-width:1pt;fill-opacity:1;"
     id="rect129"
     width="187.500015"
     height="187.500009"
     x="43.750004"
     y="81.250014"
     ry="93.75"
     rx="93.75"
     transform="translate(18.75,-18.75)" />
  <path
     style="font-size:12;fill:url(#radialGradient134);fill-opacity:1;fill-rule:evenodd;stroke-width:1pt;"
     d="M 156.25 -8.38301e-06 C 69.6875 -8.38301e-06 -2.31628e-08 69.6875 -2.31628e-08 156.25 C -2.31628e-08 242.812 69.6875 312.5 156.25 312.5 C 242.812 312.5 312.5 242.812 312.5 156.25 C 312.5 69.6875 242.812 -8.38301e-06 156.25 -8.38301e-06 z M 156.25 43.75 C 93.925 43.75 43.75 93.925 43.75 156.25 L 43.75 156.25 C 43.75 218.575 93.925 268.75 156.25 268.75 C 218.575 268.75 268.75 218.575 268.75 156.25 L 268.75 156.25 C 268.75 93.925 218.575 43.75 156.25 43.75 z "
     id="path115" />
</svg>
