<?xml version="1.0" encoding="UTF-8" standalone="no"?>
<!DOCTYPE svg PUBLIC "-//W3C//DTD SVG 20010904//EN"
"http://www.w3.org/TR/2001/REC-SVG-20010904/DTD/svg10.dtd">
<!-- Created with Sodipodi ("http://www.sodipodi.com/") -->
<svg
   id="svg121"
   sodipodi:version="0.31.1"
   width="250pt"
   height="250pt"
   sodipodi:docbase="/home/silfreed/cvs/netmrg/images/default/"
   sodipodi:docname="/home/silfreed/cvs/netmrg/images/default/status-critical-untrig.svg"
   xmlns="http://www.w3.org/2000/svg"
   xmlns:sodipodi="http://sodipodi.sourceforge.net/DTD/sodipodi-0.dtd"
   xmlns:xlink="http://www.w3.org/1999/xlink">
  <defs
     id="defs123">
    <linearGradient
       id="linearGradient130">
      <stop
         style="stop-color:#ffffff;stop-opacity:0;"
         offset="0.000000"
         id="stop131" />
      <stop
         style="stop-color:#ff4c4c;stop-opacity:1;"
         offset="1.000000"
         id="stop132" />
    </linearGradient>
    <linearGradient
       xlink:href="#linearGradient130"
       id="linearGradient133"
       x1="-1.01198e-08"
       y1="-1.01198e-08"
       x2="1"
       y2="-1.01198e-08"
       gradientUnits="objectBoundingBox"
       spreadMethod="repeat" />
    <radialGradient
       xlink:href="#linearGradient130"
       id="radialGradient134"
       cx="0.5"
       cy="0.5"
       fx="0.5"
       fy="0.5"
       r="0.168649"
       gradientUnits="objectBoundingBox"
       spreadMethod="repeat" />
  </defs>
  <sodipodi:namedview
     id="base"
     showgrid="true"
     gridspacingy="5pt"
     gridspacingx="5pt" />
  <path
     style="font-size:12;fill:url(#radialGradient134);fill-rule:evenodd;stroke-width:1pt;"
     d="M 187.5 31.25 C 100.937 31.25 31.25 100.937 31.25 187.5 C 31.25 274.062 100.937 343.75 187.5 343.75 C 274.062 343.75 343.75 274.062 343.75 187.5 C 343.75 100.937 274.062 31.25 187.5 31.25 z M 187.5 62.5 C 118.25 62.5 62.5 118.25 62.5 187.5 C 62.5 256.75 118.25 312.5 187.5 312.5 C 256.75 312.5 312.5 256.75 312.5 187.5 C 312.5 118.25 256.75 62.5 187.5 62.5 z "
     id="path128"
     transform="translate(-31.25,-31.25)" />
  <rect
     style="font-size:12;fill:#804c4c;fill-rule:evenodd;stroke-width:1pt;fill-opacity:1;"
     id="rect129"
     width="225.000000"
     height="225.000000"
     x="44.531231"
     y="38.671875"
     ry="112.5"
     rx="112.5"
     transform="translate(-0.781231,5.07812)" />
</svg>
