<?xml version="1.0" encoding="UTF-8" standalone="no"?>
<!DOCTYPE svg PUBLIC "-//W3C//DTD SVG 20010904//EN"
"http://www.w3.org/TR/2001/REC-SVG-20010904/DTD/svg10.dtd">
<!-- Created with Sodipodi ("http://www.sodipodi.com/") -->
<svg
   id="svg121"
   sodipodi:version="0.31.1"
   width="250pt"
   height="250pt"
   sodipodi:docbase="/home/silfreed/cvs/netmrg/images/default/"
   sodipodi:docname="/home/silfreed/cvs/netmrg/images/default/status.svg"
   xmlns="http://www.w3.org/2000/svg"
   xmlns:sodipodi="http://sodipodi.sourceforge.net/DTD/sodipodi-0.dtd"
   xmlns:xlink="http://www.w3.org/1999/xlink">
  <sodipodi:namedview
     id="base"
     showgrid="true"
     gridspacingy="5pt"
     gridspacingx="5pt" />
  <rect
     style="font-size:12;fill:#4c4c4c;fill-rule:evenodd;stroke-width:1pt;fill-opacity:1;"
     id="rect129"
     width="175.000015"
     height="175.000006"
     x="75.000008"
     y="62.499988"
     ry="87.5"
     rx="87.5"
     transform="translate(-6.25002,6.25002)" />
  <path
     style="font-size:12;fill:#7f7f7f;fill-rule:evenodd;stroke-width:1pt;fill-opacity:0.7;"
     d="M 156.25 -8e-06 C 69.6875 -8e-06 0 69.6875 0 156.25 C 0 242.812 69.6875 312.5 156.25 312.5 C 242.812 312.5 312.5 242.812 312.5 156.25 C 312.5 69.6875 242.812 -8e-06 156.25 -8e-06 z M 156.25 31.25 C 87 31.25 31.25 87 31.25 156.25 C 31.25 225.5 87 281.25 156.25 281.25 L 156.25 281.25 C 225.5 281.25 281.25 225.5 281.25 156.25 C 281.25 87 225.5 31.25 156.25 31.25 L 156.25 31.25 z "
     id="path221" />
</svg>
