<?xml version="1.0" encoding="UTF-8" standalone="no"?>
<!DOCTYPE svg PUBLIC "-//W3C//DTD SVG 20010904//EN"
"http://www.w3.org/TR/2001/REC-SVG-20010904/DTD/svg10.dtd"
[
 <!ATTLIST svg
  xmlns:xlink CDATA #FIXED "http://www.w3.org/1999/xlink">
]>
<!-- Created with Sodipodi ("http://www.sodipodi.com/") -->
<svg
   xmlns="http://www.w3.org/2000/svg"
   xmlns:xlink="http://www.w3.org/1999/xlink"
   version="1"
   x="0"
   y="0"
   width="375"
   height="375"
   id="svg101">
  <defs
     id="defs103" />
  <path
     d="M 31.25 31.25 L 31.25 343.75 L 343.75 343.75 L 343.75 31.25 L 31.25 31.25 z M 33.75 33.75 L 33.75 341.25 L 341.25 341.25 L 341.25 33.75 L 33.75 33.75 z "
     style="font-size:12;fill-rule:evenodd;stroke-width:1pt;"
     id="path108" />
  <path
     d="M 32.5 251.25 C 32.5 251.25 156.25 201.25 156.25 201.25 C 156.25 201.25 250 237.5 250 237.5 C 250 237.5 342.5 156.25 342.5 156.25 C 342.5 156.25 341.25 341.25 341.25 341.25 C 341.25 341.25 33.75 342.5 33.75 342.5 C 33.75 342.5 33.75 255 32.5 251.25 z "
     style="font-size:12;fill-rule:evenodd;stroke:#000000;stroke-width:1pt;"
     id="path120" />
</svg>
