<?xml version="1.0" encoding="UTF-8" standalone="no"?>
<!DOCTYPE svg PUBLIC "-//W3C//DTD SVG 1.0//EN"
"http://www.w3.org/TR/2001/REC-SVG-20010904/DTD/svg10.dtd">
<!-- Created with Sodipodi ("http://www.sodipodi.com/") -->
<svg
   id="svg730"
   sodipodi:version="0.34"
   xmlns="http://www.w3.org/2000/svg"
   xmlns:sodipodi="http://sodipodi.sourceforge.net/DTD/sodipodi-0.dtd"
   xmlns:xlink="http://www.w3.org/1999/xlink"
   width="500pt"
   height="500pt"
   xml:space="preserve"
   sodipodi:docbase="/home/silfreed"
   sodipodi:docname="/home/silfreed/viewdisk.svg"><defs
   id="defs732"><linearGradient
   id="linearGradient765"><stop
   style="stop-color:#7f7f7f;stop-opacity:1;"
   offset="0"
   id="stop766" /><stop
   style="stop-color:#ffffff;stop-opacity:0;"
   offset="1"
   id="stop767" /></linearGradient><linearGradient
   id="linearGradient734"><stop
   style="stop-color:#000000;stop-opacity:1;"
   offset="0"
   id="stop735" /><stop
   style="stop-color:#ffffff;stop-opacity:1;"
   offset="1"
   id="stop736" /></linearGradient><linearGradient
   xlink:href="#linearGradient734"
   id="linearGradient737"
   x1="0.5"
   y1="-0.25"
   x2="0.5"
   y2="1.11904776" /><linearGradient
   xlink:href="#linearGradient734"
   id="linearGradient739"
   x1="0.5"
   y1="1.10714293"
   x2="0.5"
   y2="-0.19047622" /><linearGradient
   xlink:href="#linearGradient765"
   id="linearGradient764"
   x1="8.02625735e-8"
   y1="7.81182246e-3"
   x2="0.73170733"
   y2="0.81250012" /></defs><sodipodi:namedview
   id="base"
   showgrid="true" /><path
   style="font-size:12;fill:url(#linearGradient739);fill-rule:evenodd;stroke-width:6.25;stroke-opacity:0.749;"
   d="M 256.875 450 C 125.6462 450 20 485.1225 20 528.75 C 20 572.3775 125.6462 607.5 256.875 607.5 C 388.1037 607.5 493.75 572.3775 493.75 528.75 C 493.75 485.1225 388.1037 450 256.875 450 z M 256.875 503.75 C 213.5937 503.75 178.75 514.9 178.75 528.75 C 178.75 542.6 213.5937 553.75 256.875 553.75 C 300.1562 553.75 335 542.6 335 528.75 C 335 514.9 300.1562 503.75 256.875 503.75 z "
   id="path759" /><path
   style="font-size:12;fill:url(#linearGradient737);fill-rule:evenodd;stroke-width:6.25;stroke-opacity:0.749;"
   d="M 256.875 437.5 C 125.6462 437.5 20 472.6225 20 516.25 C 20 559.8775 125.6462 595 256.875 595 C 388.1037 595 493.75 559.8775 493.75 516.25 C 493.75 472.6225 388.1037 437.5 256.875 437.5 z M 256.875 491.25 C 213.5937 491.25 178.75 502.4 178.75 516.25 C 178.75 530.1 213.5937 541.25 256.875 541.25 C 300.1562 541.25 335 530.1 335 516.25 C 335 502.4 300.1562 491.25 256.875 491.25 z "
   id="path760" /><path
   style="font-size:12;fill:url(#linearGradient739);fill-rule:evenodd;stroke-width:6.25;stroke-opacity:0.749;"
   d="M 256.875 337.5 C 125.6462 337.5 20 372.6225 20 416.25 C 20 459.8775 125.6462 495 256.875 495 C 388.1037 495 493.75 459.8775 493.75 416.25 C 493.75 372.6225 388.1037 337.5 256.875 337.5 z M 256.875 391.25 C 213.5937 391.25 178.75 402.4 178.75 416.25 C 178.75 430.1 213.5937 441.25 256.875 441.25 C 300.1562 441.25 335 430.1 335 416.25 C 335 402.4 300.1562 391.25 256.875 391.25 z "
   id="path757" /><path
   style="font-size:12;fill:url(#linearGradient737);fill-rule:evenodd;stroke-width:6.25;stroke-opacity:0.749;"
   d="M 256.875 325 C 125.6462 325 20 360.1225 20 403.75 C 20 447.3775 125.6462 482.5 256.875 482.5 C 388.1037 482.5 493.75 447.3775 493.75 403.75 C 493.75 360.1225 388.1037 325 256.875 325 z M 256.875 378.75 C 213.5937 378.75 178.75 389.9 178.75 403.75 C 178.75 417.6 213.5937 428.75 256.875 428.75 C 300.1562 428.75 335 417.6 335 403.75 C 335 389.9 300.1562 378.75 256.875 378.75 z "
   id="path758" /><path
   style="font-size:12;fill:url(#linearGradient739);fill-rule:evenodd;stroke-width:6.25;stroke-opacity:0.749;"
   d="M 256.875 225 C 125.6462 225 20 260.1225 20 303.75 C 20 347.3775 125.6462 382.5 256.875 382.5 C 388.1037 382.5 493.75 347.3775 493.75 303.75 C 493.75 260.1225 388.1037 225 256.875 225 z M 256.875 278.75 C 213.5937 278.75 178.75 289.9 178.75 303.75 C 178.75 317.6 213.5937 328.75 256.875 328.75 C 300.1562 328.75 335 317.6 335 303.75 C 335 289.9 300.1562 278.75 256.875 278.75 z "
   id="path755" /><path
   style="font-size:12;fill:url(#linearGradient737);fill-rule:evenodd;stroke-width:6.25;stroke-opacity:0.749;"
   d="M 256.875 212.5 C 125.6462 212.5 20 247.6225 20 291.25 C 20 334.8775 125.6462 370 256.875 370 C 388.1037 370 493.75 334.8775 493.75 291.25 C 493.75 247.6225 388.1037 212.5 256.875 212.5 z M 256.875 266.25 C 213.5937 266.25 178.75 277.4 178.75 291.25 C 178.75 305.1 213.5937 316.25 256.875 316.25 C 300.1562 316.25 335 305.1 335 291.25 C 335 277.4 300.1562 266.25 256.875 266.25 z "
   id="path756" /><path
   style="font-size:12;fill:url(#linearGradient739);fill-rule:evenodd;stroke-width:6.25;stroke-opacity:0.749;"
   d="M 256.875 112.5 C 125.6462 112.5 20 147.6225 20 191.25 C 20 234.8775 125.6462 270 256.875 270 C 388.1037 270 493.75 234.8775 493.75 191.25 C 493.75 147.6225 388.1037 112.5 256.875 112.5 z M 256.875 166.25 C 213.5937 166.25 178.75 177.4 178.75 191.25 C 178.75 205.1 213.5937 216.25 256.875 216.25 C 300.1562 216.25 335 205.1 335 191.25 C 335 177.4 300.1562 166.25 256.875 166.25 z "
   id="path754" /><path
   style="font-size:12;fill:url(#linearGradient737);fill-rule:evenodd;stroke-width:6.25;stroke-opacity:0.749;"
   d="M 256.875 100 C 125.6462 100 20 135.1225 20 178.75 C 20 222.3775 125.6462 257.5 256.875 257.5 C 388.1037 257.5 493.75 222.3775 493.75 178.75 C 493.75 135.1225 388.1037 100 256.875 100 z M 256.875 153.75 C 213.5937 153.75 178.75 164.9 178.75 178.75 C 178.75 192.6 213.5937 203.75 256.875 203.75 C 300.1562 203.75 335 192.6 335 178.75 C 335 164.9 300.1562 153.75 256.875 153.75 z "
   id="path751" /><path
   style="fill:url(#linearGradient764);fill-rule:evenodd;stroke:none;stroke-opacity:1;stroke-width:1pt;stroke-linejoin:miter;stroke-linecap:butt;fill-opacity:0.4962;"
   d="M 127.5 441.25 C 213.6567 283.1716 441.3152 134.0867 594.5529 83.34766 C 492.8972 58.237 174.785 58.47454 117.1907 72.44202 C 110.2185 124.8066 113.8127 367.6309 127.5 441.25 z "
   id="path643"
   sodipodi:nodetypes="cccc" /><path
   style="font-size:12;fill:#072375;fill-rule:evenodd;fill-opacity:1;"
   d="M 146.25 45 C 117.165 45 93.75 70.0875 93.75 101.25 L 93.75 418.75 C 93.75 449.9125 117.165 475 146.25 475 L 563.75 475 C 592.835 475 616.25 449.9125 616.25 418.75 L 616.25 101.25 C 616.25 70.0875 592.835 45 563.75 45 L 146.25 45 z M 189.1986 97.50002 C 166.0976 97.50002 147.5 116.4615 147.5 140.0145 L 147.5 379.9855 C 147.5 403.5385 166.0976 422.5 189.1986 422.5 L 520.8015 422.5 C 543.9025 422.5 562.5 403.5385 562.5 379.9855 L 562.5 140.0145 C 562.5 116.4615 543.9025 97.50002 520.8015 97.50002 L 189.1986 97.50002 z "
   id="path729" /></svg>
